<?xml version="1.0" encoding="utf-8"?>
<!-- Generator: Adobe Illustrator 27.1.1, SVG Export Plug-In . SVG Version: 6.00 Build 0)  -->
<svg version="1.1" id="Layer_2_00000161611775415321367040000013603341788265503397_"
	 xmlns="http://www.w3.org/2000/svg" xmlns:xlink="http://www.w3.org/1999/xlink" x="0px" y="0px" width="344.8px" height="339.3px"
	 viewBox="0 0 344.8 339.3" style="enable-background:new 0 0 344.8 339.3;" xml:space="preserve">
<style type="text/css">
	.st0{fill:#B1D13B;}
</style>
<g id="scap">
	<g>
		<path class="st0" d="M343.9,251.1l-67-134.7l39.2-38.6c6.7-6.6,10.4-15.4,10.4-24.7c0-9.4-3.7-18.2-10.4-24.8
			c-6.4-6.3-15.2-10-24.2-10.2L291,18h-0.2c-9.5,0-18.4,3.6-25.1,10.2l-39.3,38.7l-137-66C88.3,0.3,86.8,0,85.2,0
			C83,0.1,81,1,79.5,2.5L56.8,24.9c-1.8,1.8-2.7,4.3-2.5,6.8s1.5,4.8,3.6,6.3l115,81.7l-94.7,93.2l-42.3-24.1
			c-3.4-1.9-7.7-1.3-10.5,1.4L2.5,212.6c-1.8,1.8-2.7,4.2-2.5,6.6c0.2,2.5,1.4,4.8,3.4,6.3L60,268.1l-0.5,0.5
			c-1.7,1.6-2.6,3.8-2.6,6.1s0.9,4.5,2.6,6.1c1.7,1.6,3.8,2.5,6.2,2.5c2.3,0,4.5-0.9,6.2-2.5l0.5-0.5l43.2,55.6
			c1.6,2,3.9,3.3,6.4,3.5c0.1,0,0.1,0,0.2,0s0.2,0,0.3,0c2.3,0,4.5-0.9,6.2-2.5l22.8-22.4c2.8-2.8,3.4-7.1,1.4-10.4l-24.4-41.5
			l94.7-93.2l83.1,113.1c1.5,2,3.8,3.2,6.3,3.4c0.3,0,0.5,0,0.7,0c2.3,0,4.5-0.9,6.2-2.5l22.8-22.4
			C344.9,258.3,345.6,254.4,343.9,251.1L343.9,251.1z M263.8,129.2l61.7,123.9L314.4,264l-78.8-107L263.8,129.2L263.8,129.2z
			 M76.3,29.9l11.1-11l126.1,60.7l-28.1,27.7L76.3,29.9z M111.4,254.8c-2.7,2.7-3.3,6.7-1.5,10.1l24.5,42l-11,10.8L84.8,268
			l17.4-17.1c2.6-2.5,3.4-6.2,1.9-9.6c-1-2.3-3-4.1-5.4-4.8V236l-2.8,0.1c-2.3,0.1-4.4,1-6,2.6l-17.4,17.2l-50.5-38l11-10.8
			l39.6,22.5l3.1,1.6c3.4,1.7,7.5,1.1,10.2-1.6L192.1,125l42.4-41.7c0.1-0.1,0.1-0.1,0.1-0.1l43.6-42.9c3.1-3.1,7.2-4.9,11.6-5.2
			h1.2c4.9,0,9.4,1.9,12.8,5.3c3.4,3.3,5.3,7.6,5.3,12.3c0,4.8-1.9,9.4-5.3,12.8l-55.9,55L111.4,254.8L111.4,254.8L111.4,254.8z"/>
		<polygon class="st0" points="252.4,265.3 264.8,277.4 283.9,258.6 271.5,246.5 		"/>
		<polygon class="st0" points="248.8,224.1 214.5,257.8 226.9,270 261.2,236.3 		"/>
		<polygon class="st0" points="62.8,78.7 75.1,90.8 94.2,72.1 81.9,59.9 		"/>
		<polygon class="st0" points="82.7,128.1 117,94.4 104.7,82.3 70.3,115.9 		"/>
	</g>
</g>
</svg>
