<?xml version="1.0" encoding="utf-8"?>
<!-- Generator: Adobe Illustrator 27.1.1, SVG Export Plug-In . SVG Version: 6.00 Build 0)  -->
<svg version="1.1" id="Layer_2_00000018203506183193898240000008980830332728892047_"
	 xmlns="http://www.w3.org/2000/svg" xmlns:xlink="http://www.w3.org/1999/xlink" x="0px" y="0px" width="377.4px" height="331.1px"
	 viewBox="0 0 377.4 331.1" style="enable-background:new 0 0 377.4 331.1;" xml:space="preserve">
<style type="text/css">
	.st0{fill:#B1D13B;}
</style>
<g id="scap">
	<g>
		<path class="st0" d="M103.7,247.3H72.8c-6,0-11,4.9-11,11c0,6.1,4.9,11,11,11h30.9c6,0,11-4.9,11-11S109.7,247.3,103.7,247.3"/>
		<path class="st0" d="M227.4,247.3h-30.9c-6,0-10.9,4.9-10.9,11c0,6.1,4.9,11,10.9,11h30.9c6,0,11-4.9,11-11
			S233.4,247.3,227.4,247.3"/>
		<g>
			<path class="st0" d="M348.6,224.1h-26.1l-6-78.5h38.1L348.6,224.1L348.6,224.1z M374.5,127.2c-2.1-2.2-5-3.5-8-3.5h-61.8
				c-3.1,0-6,1.3-8,3.5c-2.1,2.3-3.1,5.3-2.9,8.3l7.8,100.5c0.4,5.7,5.2,10.1,10.9,10.1h12.2v74c0,6,4.9,11,11,11s11-4.9,11-11v-74
				h12.2c5.7,0,10.5-4.4,10.9-10.1l7.7-100.5C377.6,132.4,376.6,129.4,374.5,127.2"/>
			<path class="st0" d="M52.8,278.2v-96.1l92.9,39.8c1.4,0.6,2.9,0.9,4.3,0.9s2.9-0.3,4.3-0.9l92.9-39.8v96.1H52.8z M216.4,305.6
				l-4.5,2.2l-4.5-2.2v-5.5h9V305.6z M92.7,305.6l-4.5,2.2l-4.5-2.2v-5.5h9V305.6z M247.3,158.3L150.1,200l-97.2-41.7v-90h194.5
				L247.3,158.3L247.3,158.3z M247.3,46.4H52.8V21.9h194.5V46.4L247.3,46.4z M300.1,88.2V57.3c0-6-4.9-11-11-11h-20V10.9
				c0-6-4.9-10.9-11-10.9H41.9c-6,0-11,4.9-11,10.9v35.4h-20c-6,0-10.9,4.9-10.9,11v30.9c0,6,4.9,11,10.9,11s11-4.9,11-11V68.3h9
				v220.9c0,6,4.9,11,11,11h20v12.2c0,4.1,2.4,7.9,6.1,9.8l15.4,7.7c1.5,0.8,3.2,1.2,4.9,1.2s3.4-0.4,4.9-1.2l15.4-7.7
				c3.7-1.9,6.1-5.7,6.1-9.8v-12.2h70.8v12.2c0,4.1,2.3,7.9,6,9.8l15.5,7.7c1.5,0.8,3.2,1.2,4.9,1.2s3.4-0.4,4.9-1.2l15.5-7.7
				c3.7-1.9,6-5.7,6-9.8v-12.2h20c6,0,11-4.9,11-11V68.3h9v19.9c0,6,4.9,11,11,11S300.2,94.3,300.1,88.2"/>
		</g>
	</g>
</g>
</svg>
