<?xml version="1.0" encoding="utf-8"?>
<!-- Generator: Adobe Illustrator 27.1.1, SVG Export Plug-In . SVG Version: 6.00 Build 0)  -->
<svg version="1.1" id="Layer_2_00000129192087164982344070000014995710325986314118_"
	 xmlns="http://www.w3.org/2000/svg" xmlns:xlink="http://www.w3.org/1999/xlink" x="0px" y="0px" width="279.8px" height="341px"
	 viewBox="0 0 279.8 341" style="enable-background:new 0 0 279.8 341;" xml:space="preserve">
<style type="text/css">
	.st0{fill:#B1D13B;}
</style>
<g id="scap">
	<path class="st0" d="M210.8,277.1h18l22.7,42.7h-22.3L210.8,277.1L210.8,277.1z M170.6,277.1h16.9l18.4,42.7h-35.4L170.6,277.1
		L170.6,277.1z M127.9,277.1h21.3v42.7h-21.3C127.9,319.8,127.9,277.1,127.9,277.1z M89,277.1h17.6v42.7H74.8L89,277.1z M54.5,277.1
		h12.1l-14.3,42.7h-23L54.5,277.1z M63.9,191.8c-11.8,0-21.3,9.6-21.3,21.3s9.5,21.3,21.3,21.3s21.3-9.6,21.3-21.3
		S75.8,191.8,63.9,191.8C64,191.8,63.9,191.8,63.9,191.8z M213.1,191.7c-11.8,0-21.3,9.6-21.3,21.3s9.6,21.3,21.3,21.3
		s21.3-9.6,21.3-21.3S224.9,191.7,213.1,191.7L213.1,191.7L213.1,191.7z M21.3,168.1c3.9,1.6,8.1,2.4,12.3,2.4h209.8
		c4.2,0,8.4-0.8,12.3-2.4v84.2c0,1.9-1.5,3.4-3.4,3.4H24.8c-1.9,0-3.4-1.5-3.5-3.4v-0.1V168.1L21.3,168.1z M149.2,64h106.6v73
		c0,6.8-5.5,12.3-12.3,12.3h-94.3L149.2,64L149.2,64z M21.3,64h106.5v85.3H33.6c-6.8,0-12.3-5.5-12.3-12.3V64L21.3,64z M24.7,21.4
		h227.6c1.9,0,3.4,1.5,3.4,3.4v18H21.3v-18C21.4,22.8,22.9,21.4,24.7,21.4 M24.8,0C11.1,0,0,11.1,0,24.7v227.6
		C0,265.9,11.1,277,24.8,277h5L1.5,325c-3,5.1-1.3,11.6,3.8,14.6c1.6,1,3.5,1.5,5.4,1.5h258.4c5.9,0,10.7-4.7,10.7-10.6
		c0-1.7-0.4-3.4-1.2-5L252.8,277c13.4-0.2,24.2-11.2,24.2-24.7V24.7C277.1,11.1,266,0,252.4,0H24.8L24.8,0z"/>
</g>
</svg>
